# xmcd
#
# Track frame offsets:
#	150
#	10041
#	27462
#	44142
#	59311
#	71093
#	90460
#	106691
#	126171
#	141834
#	156908
#	169399
#	180091
#	191490
#
# Disc length: 2827 seconds
#
# Revision: 0
# Processed by: cddbd v1.5.1PL0 Copyright (c) Steve Scherf et al.
# Submitted via: dBpowerAMP V4.0
#
DISCID=bb0b090e
DTITLE=Indian Tea Band - Jump The Grand Canyon
DYEAR=1998
DGENRE=Country
TTITLE0=Worn Out Jacket
TTITLE1=Praise The Lord and Send Me The Money
TTITLE2=Nice Guys Always Finish Last
TTITLE3=Arrow and Bow
TTITLE4=Stubborn Ol' Mule
TTITLE5=Get Them 4-Wheels A-Rollin'
TTITLE6=Cactus Time
TTITLE7=See You Soon In The Saloon
TTITLE8=Zombrero Zombie
TTITLE9=Jump The Grand Canyon
TTITLE10=Arrow Through My Sombrero
TTITLE11=The Old Home Town
TTITLE12=Back In The Saddle Again
TTITLE13=Ridin'Through The Canyon
EXTD=
EXTT0=
EXTT1=
EXTT2=
EXTT3=
EXTT4=
EXTT5=
EXTT6=
EXTT7=
EXTT8=
EXTT9=
EXTT10=
EXTT11=
EXTT12=
EXTT13=
PLAYORDER=
